<?xml version="1.0" encoding="utf-8"?>
<!-- Generator: Adobe Illustrator 21.0.2, SVG Export Plug-In . SVG Version: 6.00 Build 0)  -->
<svg version="1.1" id="Layer_1" xmlns="http://www.w3.org/2000/svg" xmlns:xlink="http://www.w3.org/1999/xlink" x="0px" y="0px"
	 viewBox="0 0 200 200" style="enable-background:new 0 0 200 200;" xml:space="preserve">
<style type="text/css">
	.st0{fill:#FFFFFF;}
</style>
<g>
	<polygon class="st0" points="166.6,131.2 109,99.7 135.7,73 	"/>
	<polygon class="st0" points="103.4,91.9 103,50.1 131,64.2 	"/>
	<polygon class="st0" points="79.4,44.8 97.6,26.6 93.7,39.1 	"/>
	<polygon class="st0" points="142.8,65.9 166.7,42 175.6,127.7 	"/>
	<polygon class="st0" points="163.1,32.1 138.1,57.1 113.4,44.6 	"/>
	<polygon class="st0" points="103.7,36.4 110.8,13.4 135.1,0.2 159.4,22.5 	"/>
	<polygon class="st0" points="149.1,0 195.6,0 172.9,21.9 	"/>
	<polygon class="st0" points="200,8.9 200,62.3 177.5,31.4 	"/>
	<polygon class="st0" points="176.3,46.3 200,78.7 200,181.5 186.6,145.4 	"/>
	<polygon class="st0" points="199.6,199.6 147.8,176.6 147.7,176.6 113.1,113.1 113,113 113,113 113,112.9 113.1,113 176.6,147.7 
		176.6,147.8 199.6,199.5 199.7,199.6 199.6,199.6 199.6,199.6 	"/>
	<polygon class="st0" points="92.8,92.8 92.9,92.8 92.8,92.8 92.8,92.8 92.8,92.8 49.1,92.4 62,62 62,62 62,62 62,62 62,62 
		92.5,49.1 	"/>
	<polygon class="st0" points="131.2,166.6 73,135.7 99.7,108.9 	"/>
	<polygon class="st0" points="64.2,131 50.1,102.9 91.9,103.3 	"/>
	<polygon class="st0" points="26.6,97.6 44.8,79.4 39.2,93.7 	"/>
	<polygon class="st0" points="42.1,166.6 66,142.7 127.8,175.6 	"/>
	<polygon class="st0" points="44.6,113.3 57.2,138.1 32.2,163.1 	"/>
	<polygon class="st0" points="0.3,135.1 13.4,110.8 36.4,103.7 22.5,159.3 	"/>
	<polygon class="st0" points="0,195.5 0,149 21.9,172.9 	"/>
	<polygon class="st0" points="31.5,177.5 62.4,200 8.9,200 	"/>
	<polygon class="st0" points="145.4,186.6 181.5,200 78.7,200 46.3,176.2 	"/>
</g>
</svg>
